<svg xmlns="http://www.w3.org/2000/svg" viewBox="0 0 512 512" width="512" height="512">
  <defs>
    <linearGradient id="grad" x1="0%" y1="0%" x2="100%" y2="100%">
      <stop offset="0%" style="stop-color:#8b5cf6;stop-opacity:1" />
      <stop offset="100%" style="stop-color:#6366f1;stop-opacity:1" />
    </linearGradient>
  </defs>
  <rect width="512" height="512" rx="80" fill="url(#grad)"/>
  <g fill="white" transform="translate(80, 80)">
    <!-- Main courier truck -->
    <rect x="50" y="180" width="160" height="80" rx="12" fill="white"/>
    <rect x="210" y="200" width="80" height="60" rx="8" fill="white"/>
    <circle cx="90" cy="280" r="25" fill="#6366f1"/>
    <circle cx="90" cy="280" r="15" fill="white"/>
    <circle cx="250" cy="280" r="25" fill="#6366f1"/>
    <circle cx="250" cy="280" r="15" fill="white"/>
    
    <!-- Package/delivery box -->
    <rect x="140" y="100" width="100" height="100" rx="8" stroke="white" stroke-width="6" fill="none"/>
    <path d="M190 120 L190 80 L220 80 L220 120" stroke="white" stroke-width="4" fill="none"/>
    <circle cx="190" cy="150" r="6" fill="white"/>
    
    <!-- Mobile/app element -->
    <rect x="280" y="60" width="60" height="100" rx="12" stroke="white" stroke-width="3" fill="none"/>
    <rect x="290" y="75" width="40" height="2" fill="white"/>
    <rect x="290" y="85" width="25" height="2" fill="white"/>
    <rect x="290" y="95" width="35" height="2" fill="white"/>
    <rect x="290" y="130" width="40" height="15" rx="3" fill="white"/>
    
    <!-- Speed lines for movement -->
    <path d="M20 150 L40 150 M15 170 L35 170 M25 190 L45 190" stroke="white" stroke-width="3" stroke-linecap="round"/>
  </g>
</svg>